<?xml version="1.0" encoding="utf-8"?>
<!-- Generator: Adobe Illustrator 23.0.4, SVG Export Plug-In . SVG Version: 6.00 Build 0)  -->
<svg version="1.1" id="Layer_1" xmlns="http://www.w3.org/2000/svg" xmlns:xlink="http://www.w3.org/1999/xlink" x="0px" y="0px"
	 viewBox="0 0 12.6 12.5" style="enable-background:new 0 0 12.6 12.5;" xml:space="preserve">
<style type="text/css">
	.st0{fill-rule:evenodd;clip-rule:evenodd;}
</style>
<path class="st0" d="M0.6,0.2h3v3h-3C0.6,3.2,0.6,0.2,0.6,0.2z M4.7,0.2h3v3h-3V0.2z M11.9,0.2h-3v3h3V0.2z M0.6,4.7h3v3h-3
	C0.6,7.7,0.6,4.7,0.6,4.7z M7.7,4.7h-3v3h3V4.7z M8.8,4.7h3v3h-3V4.7z M3.6,9.3h-3v3h3V9.3z M4.7,9.3h3v3h-3V9.3z M11.9,9.3h-3v3h3
	V9.3z"/>
</svg>
